<?xml version="1.0" encoding="UTF-8" standalone="no"?>
<!-- Created with Inkscape (http://www.inkscape.org/) -->

<svg
   xmlns:dc="http://purl.org/dc/elements/1.1/"
   xmlns:cc="http://creativecommons.org/ns#"
   xmlns:rdf="http://www.w3.org/1999/02/22-rdf-syntax-ns#"
   xmlns:svg="http://www.w3.org/2000/svg"
   xmlns="http://www.w3.org/2000/svg"
   xmlns:sodipodi="http://sodipodi.sourceforge.net/DTD/sodipodi-0.dtd"
   xmlns:inkscape="http://www.inkscape.org/namespaces/inkscape"
   width="81.279999mm"
   height="128.5mm"
   viewBox="0 0 81.280002 128.50002"
   version="1.1"
   id="svg8"
   inkscape:version="0.92.4 (unknown)"
   sodipodi:docname="FDM.svg">
  <defs
     id="defs2" />
  <sodipodi:namedview
     id="base"
     pagecolor="#ffffff"
     bordercolor="#666666"
     borderopacity="1.0"
     inkscape:pageopacity="0.0"
     inkscape:pageshadow="2"
     inkscape:zoom="1.4"
     inkscape:cx="177.01403"
     inkscape:cy="264.53818"
     inkscape:document-units="mm"
     inkscape:current-layer="layer1"
     showgrid="false"
     units="mm"
     inkscape:snap-bbox="true"
     inkscape:snap-page="true"
     inkscape:bbox-nodes="true"
     inkscape:snap-bbox-edge-midpoints="true"
     inkscape:window-width="1920"
     inkscape:window-height="1052"
     inkscape:window-x="1920"
     inkscape:window-y="0"
     inkscape:window-maximized="1" />
  <metadata
     id="metadata5">
    <rdf:RDF>
      <cc:Work
         rdf:about="">
        <dc:format>image/svg+xml</dc:format>
        <dc:type
           rdf:resource="http://purl.org/dc/dcmitype/StillImage" />
        <dc:title></dc:title>
      </cc:Work>
    </rdf:RDF>
  </metadata>
  <g
     inkscape:label="Layer 1"
     inkscape:groupmode="layer"
     id="layer1"
     transform="translate(0,-168.49998)">
    <path
       style="opacity:1;vector-effect:none;fill:#1a1a1a;fill-opacity:1;fill-rule:evenodd;stroke:none;stroke-width:1.01523662;stroke-linecap:butt;stroke-linejoin:round;stroke-miterlimit:4;stroke-dasharray:none;stroke-dashoffset:0;stroke-opacity:1;paint-order:normal"
       d="M 0,168.49998 H 81.279999 V 296.99999 H 0 Z"
       id="rect817"
       inkscape:connector-curvature="0" />
    <path
       style="fill:#ffffff;stroke-width:0.25951585"
       d="m 19.874998,191.45013 a 1,1.0394346 0 0 1 -1,1.03944 1,1.0394346 0 0 1 -1,-1.03944 1,1.0394346 0 0 1 1,-1.03943 1,1.0394346 0 0 1 1,1.03943 z"
       id="ellipse73" />
    <path
       style="fill:#ffffff;stroke-width:0.25951585"
       d="m 19.874998,218.52901 a 1,1.0394346 0 0 1 -1,1.03943 1,1.0394346 0 0 1 -1,-1.03943 1,1.0394346 0 0 1 1,-1.03944 1,1.0394346 0 0 1 1,1.03944 z"
       id="ellipse75" />
    <path
       style="fill:#ffffff;stroke-width:0.25951585"
       d="m 18.930058,244.30133 a 1,1.0394346 0 0 1 -1,1.03944 1,1.0394346 0 0 1 -1,-1.03944 1,1.0394346 0 0 1 1,-1.03943 1,1.0394346 0 0 1 1,1.03943 z"
       id="ellipse77" />
    <path
       style="fill:#ffffff;stroke-width:0.25951585"
       d="m 41.875,191.45013 a 1,1.0394346 0 0 1 -1,1.03944 1,1.0394346 0 0 1 -1,-1.03944 1,1.0394346 0 0 1 1,-1.03943 1,1.0394346 0 0 1 1,1.03943 z"
       id="ellipse79" />
    <path
       style="fill:#ffffff;stroke-width:0.25951585"
       d="m 41.875,218.52901 a 1,1.0394346 0 0 1 -1,1.03943 1,1.0394346 0 0 1 -1,-1.03943 1,1.0394346 0 0 1 1,-1.03944 1,1.0394346 0 0 1 1,1.03944 z"
       id="ellipse81" />
    <path
       style="fill:#ffffff;stroke-width:0.25951585"
       d="m 48.263393,244.30133 a 1,1.0394346 0 0 1 -1,1.03944 1,1.0394346 0 0 1 -1,-1.03944 1,1.0394346 0 0 1 1,-1.03943 1,1.0394346 0 0 1 1,1.03943 z"
       id="ellipse83" />
    <path
       style="fill:#ffffff;stroke-width:0.25951585"
       d="m 63.875,191.45013 a 1,1.0394346 0 0 1 -1,1.03944 1,1.0394346 0 0 1 -1,-1.03944 1,1.0394346 0 0 1 1,-1.03943 1,1.0394346 0 0 1 1,1.03943 z"
       id="ellipse85" />
    <path
       style="fill:#ffffff;stroke-width:0.25951585"
       d="m 63.875,218.52901 a 1,1.0394346 0 0 1 -1,1.03943 1,1.0394346 0 0 1 -1,-1.03943 1,1.0394346 0 0 1 1,-1.03944 1,1.0394346 0 0 1 1,1.03944 z"
       id="ellipse87" />
    <path
       style="fill:#ffffff;stroke-width:0.25951585"
       d="m 62.930061,244.30133 a 1,1.0394346 0 0 1 -1,1.03944 1,1.0394346 0 0 1 -1,-1.03944 1,1.0394346 0 0 1 1,-1.03943 1,1.0394346 0 0 1 1,1.03943 z"
       id="ellipse89" />
    <path
       style="fill:#ffffff;fill-opacity:1;stroke-width:0.05838403"
       d="m 12.283639,269.57568 a 1,1 0 0 1 -1,1 1,1 0 0 1 -1,-1 1,1 0 0 1 1,-1 1,1 0 0 1 1,1 z"
       id="path3798" />
    <path
       style="fill:#ffffff;fill-opacity:1;stroke-width:0.05838403"
       d="m 12.283639,281.57568 a 1,1 0 0 1 -1,1 1,1 0 0 1 -1,-1 1,1 0 0 1 1,-1 1,1 0 0 1 1,1 z"
       id="circle4605" />
    <path
       style="fill:#ffffff;stroke-width:0.25951585"
       d="m 33.596729,244.30133 a 1,1.0394346 0 0 1 -1,1.03944 1,1.0394346 0 0 1 -1,-1.03944 1,1.0394346 0 0 1 1,-1.03943 1,1.0394346 0 0 1 1,1.03943 z"
       id="ellipse4609" />
    <path
       style="fill:#ffffff;fill-opacity:1;stroke-width:0.05838403"
       d="m 24.28364,269.57568 a 1,1 0 0 1 -1,1 1,1 0 0 1 -1,-1 1,1 0 0 1 1,-1 1,1 0 0 1 1,1 z"
       id="circle4611" />
    <path
       style="fill:#ffffff;fill-opacity:1;stroke-width:0.05838403"
       d="m 24.28364,281.57568 a 1,1 0 0 1 -1,1 1,1 0 0 1 -1,-1 1,1 0 0 1 1,-1 1,1 0 0 1 1,1 z"
       id="circle4613" />
    <path
       style="fill:#ffffff;fill-opacity:1;stroke-width:0.05838403"
       d="m 36.283638,269.57568 a 1,1 0 0 1 -1,1 1,1 0 0 1 -1,-1 1,1 0 0 1 1,-1 1,1 0 0 1 1,1 z"
       id="circle4615" />
    <path
       style="fill:#ffffff;fill-opacity:1;stroke-width:0.05838403"
       d="m 36.283638,281.57568 a 1,1 0 0 1 -1,1 1,1 0 0 1 -1,-1 1,1 0 0 1 1,-1 1,1 0 0 1 1,1 z"
       id="circle4617" />
    <path
       style="fill:#ffffff;fill-opacity:1;stroke-width:0.05838403"
       d="m 48.283638,269.57568 a 1,1 0 0 1 -1,1 1,1 0 0 1 -1,-1 1,1 0 0 1 1,-1 1,1 0 0 1 1,1 z"
       id="circle4619" />
    <path
       style="fill:#ffffff;fill-opacity:1;stroke-width:0.05838403"
       d="m 48.283638,281.57568 a 1,1 0 0 1 -1,1 1,1 0 0 1 -1,-1 1,1 0 0 1 1,-1 1,1 0 0 1 1,1 z"
       id="circle4621" />
    <path
       style="fill:#ffffff;fill-opacity:1;stroke-width:0.05838403"
       d="m 60.283638,269.57568 a 1,1 0 0 1 -1,1 1,1 0 0 1 -1,-1 1,1 0 0 1 1,-1 1,1 0 0 1 1,1 z"
       id="circle4623" />
    <path
       style="fill:#ffffff;fill-opacity:1;stroke-width:0.05838403"
       d="m 60.283638,281.57568 a 1,1 0 0 1 -1,1 1,1 0 0 1 -1,-1 1,1 0 0 1 1,-1 1,1 0 0 1 1,1 z"
       id="circle4625" />
    <path
       style="fill:#ffffff;fill-opacity:1;stroke-width:0.05838403"
       d="m 72.283646,269.57568 a 1,1 0 0 1 -1,1 1,1 0 0 1 -1,-1 1,1 0 0 1 1,-1 1,1 0 0 1 1,1 z"
       id="circle4627" />
    <path
       style="fill:#ffffff;fill-opacity:1;stroke-width:0.05838403"
       d="m 72.283646,281.57568 a 1,1 0 0 1 -1,1 1,1 0 0 1 -1,-1 1,1 0 0 1 1,-1 1,1 0 0 1 1,1 z"
       id="circle4629" />
    <g
       aria-label="FDM"
       style="font-style:normal;font-weight:normal;font-size:10.58333302px;line-height:1.25;font-family:sans-serif;letter-spacing:0px;word-spacing:0px;fill:#decd87;fill-opacity:1;stroke:none;stroke-width:0.26458332"
       id="text4633">
      <path
         d="m 29.903801,171.95336 h 4.433838 v 0.8785 h -3.389974 v 2.27377 h 3.059245 v 0.8785 h -3.059245 v 3.68453 h -1.043864 z"
         style="fill:#decd87;stroke-width:0.26458332"
         id="path4657" />
      <path
         d="m 37.045484,172.81119 v 5.99964 h 1.260905 q 1.596801,0 2.335774,-0.72347 0.744141,-0.72347 0.744141,-2.2841 0,-1.55029 -0.744141,-2.2686 -0.738973,-0.72347 -2.335774,-0.72347 z m -1.043864,-0.85783 h 2.144572 q 2.242757,0 3.291788,0.93535 1.049032,0.93017 1.049032,2.91455 0,1.99471 -1.054199,2.93005 -1.0542,0.93535 -3.286621,0.93535 H 36.00162 Z"
         style="fill:#decd87;stroke-width:0.26458332"
         id="path4659" />
      <path
         d="m 44.145824,171.95336 h 1.555461 l 1.968872,5.25033 1.979207,-5.25033 h 1.555461 v 7.7153 h -1.018026 v -6.77478 l -1.989542,5.29166 h -1.049032 l -1.989543,-5.29166 v 6.77478 h -1.012858 z"
         style="fill:#decd87;stroke-width:0.26458332"
         id="path4661" />
    </g>
  </g>
</svg>
